<svg width="108" height="108" viewBox="0 0 108 108" fill="none" xmlns="http://www.w3.org/2000/svg">
<path d="M85.4583 53.6601C85.4583 71.2335 71.2332 85.4586 53.6598 85.4586V53.6601H85.4583ZM53.6598 21.8616V53.6601H21.8613C21.8613 36.0867 36.0865 21.8616 53.6598 21.8616Z" fill="#757575"/>
<path d="M53.6599 21.8616C71.2332 21.8616 85.4584 36.0867 85.4584 53.6601H53.6599V21.8616ZM21.8613 53.6601H53.6599V85.4586C36.0865 85.4586 21.8613 71.2334 21.8613 53.6601Z" fill="white"/>
<path d="M53.66 21.8615V23.6049C70.2308 23.6049 83.7151 37.0861 83.7151 53.66H85.4585C85.4585 36.0992 71.2208 21.8615 53.66 21.8615ZM53.66 83.7151C37.0892 83.7151 23.6049 70.2339 23.6049 53.66H21.8615C21.8615 71.2208 36.0993 85.4585 53.66 85.4585M53.66 0C24.0252 0 0 24.0252 0 53.66C0 83.2948 24.0252 107.32 53.66 107.32C83.2948 107.32 107.32 83.2948 107.32 53.66C107.32 24.0252 83.2948 0 53.66 0ZM103.831 53.66C103.831 81.3671 81.3702 103.831 53.66 103.831C25.9498 103.831 3.48941 81.3671 3.48941 53.66C3.48941 25.9529 25.9529 3.48941 53.66 3.48941C81.3671 3.48941 103.831 25.9529 103.831 53.66Z" fill="#757575"/>
<path d="M30.7286 27.7733C32.4434 25.9796 33.4142 23.9073 31.6995 21.9289C30.7665 20.8552 29.1999 20.6204 27.9012 21.1495L27.772 21.1995L27.813 21.0868C28.0052 20.5766 28.1282 18.9488 26.7318 17.825C26.051 17.2772 25.1967 17.0737 24.3331 17.1614C22.7224 17.3242 21.4836 18.4167 18.1109 22.1512C17.0928 23.2781 15.6113 25.0561 14.7224 26.2081L23.9863 34.9355C27.0565 31.561 28.3078 30.3057 30.7286 27.7733ZM18.6404 25.6384C20.5065 23.372 22.4891 21.3154 23.3875 20.5015C23.6711 20.2448 23.98 19.9881 24.3551 19.8879C24.9635 19.722 25.5908 20.1509 25.7326 20.7707C25.8744 21.3936 25.4804 21.9853 25.0423 22.4736C24.0557 23.5786 20.4371 27.3382 20.4371 27.3382L18.6404 25.6384ZM22.2685 29.0567C22.2685 29.0567 25.7925 25.3566 26.943 24.1734C27.4 23.7038 27.6932 23.419 28.0084 23.2656C28.415 23.0684 28.8595 23.0277 29.2566 23.2906C29.6475 23.5504 29.8271 23.9981 29.7294 24.4426C29.6128 24.9716 29.1778 25.4756 28.8185 25.8606C28.3331 26.3771 24.1534 30.8191 24.1471 30.8254L22.2685 29.0567ZM54.719 17.3649L57.6851 10.7661L57.8743 10.1807L57.8207 10.7911L58.1327 19.6093C59.1729 19.7064 60.2478 19.8504 61.3069 20.0257L60.8246 6.96584C59.3431 6.80306 57.868 6.68724 56.3928 6.62463L53.4708 13.8276L53.3668 14.3629L53.2628 13.8276L50.344 6.62463C48.8688 6.68724 47.3936 6.80306 45.9122 6.96584L45.4299 20.0257C46.489 19.8504 47.5638 19.7095 48.604 19.6093L48.9161 10.7911L48.8625 10.1807L49.0516 10.7661L52.0177 17.3649H54.719ZM79.3525 31.0163C80.0806 31.7926 81.1302 33.0448 81.7197 33.8055L92.5754 26.9625C92.0333 26.2582 91.1696 25.1876 90.5234 24.4332L83.6488 28.9471L83.1791 29.3478L83.529 28.8407L86.5644 22.8242L84.4179 20.6924L78.3564 23.7069L77.8458 24.0544L78.2524 23.588L82.8008 16.7638C82.0002 16.0877 81.2311 15.4679 80.2508 14.7166L73.3604 25.4881C74.2335 26.1549 75.384 27.1347 76.1185 27.8014L82.6054 24.4582L83.0215 24.1546L82.7157 24.5678L79.3525 31.0163Z" fill="#757575"/>
</svg>
